<svg width="439" height="472" fill="none" xmlns="http://www.w3.org/2000/svg"><path d="M422.855 322.005c-5.486-12.326-13.053-24.463-24.119-38.483-27.902-35.19-36.415-113.662-36.509-114.414-.378-3.764-3.027-6.869-6.526-7.998a9.574 9.574 0 00-10.026 2.728c-33.294 37.355-19.295 95.032-11.729 118.085 2.081 6.304 4.351 13.737 5.958 21.264 12.296 60.877-11.444 88.446-17.025 93.997-5.391 1.505-9.08.753-12.485-2.917-11.728-12.89-15.606-55.137-10.12-110.18 1.136-11.197.851-21.265-.757-30.674-11.569-67.654-53.99-111.051-64.789-126.27-29.7-44.034-32.726-117.331-32.821-117.99-.094-3.481-2.081-6.586-5.202-8.092-3.027-1.505-6.715-1.317-9.553.659-49.561 33.779-45.305 115.167-38.401 160.613 1.608 10.538 4.73 21.265 10.121 34.814 19.2 48.457-3.784 111.027-3.973 111.592-.189.564-.378 1.034-.473 1.599-2.932 15.431-7.85 24.652-13.336 24.652-.567 0-1.135-.094-1.797-.282-6.715-1.412-10.215-8.563-10.31-14.773-.378-80.259-80.68-107.263-81.53-107.546-3.595-1.129-7.567-.094-10.026 2.823a9.279 9.279 0 00-1.324 10.35c.945 1.976 3.972 10.632 1.891 41.212-1.797 27.475-6.81 54.667-14.85 80.73C4.04 409.98 7.067 469.164 7.255 471.986c14.692 160.244 244.441 188.322 380.793 98.043 14.944-9.88 27.146-21.17 36.131-33.59 50.319-69.628 20.715-164.189-1.323-214.434zM73.369 475.091c.284 5.175-3.688 9.598-8.89 9.88h-.568c-5.013 0-9.175-3.858-9.458-8.845-.852-13.737-.662-28.133.378-43.752.378-5.175 4.918-9.033 10.12-8.751 5.203.376 9.175 4.892 8.797 10.067-1.042 14.868-1.23 28.417-.379 41.401zm4.634-83.364c-.567 4.798-4.635 8.28-9.364 8.28-.378 0-.756 0-1.23-.094-5.107-.659-8.796-5.269-8.228-10.444l4.54-36.32c.662-5.08 5.297-8.75 10.593-8.185 5.202.658 8.891 5.363 8.229 10.538l-4.54 36.225zM358.865 128.726c-5.158-.795-8.696-5.591-7.901-10.723.591-3.823 4.008-23.394 13.282-33.235 3.57-3.794 9.546-3.992 13.37-.427a9.375 9.375 0 01.43 13.3c-3.925 4.168-7.27 16.094-8.387 23.23-.798 5.077-5.559 8.64-10.794 7.855zM14.052 175.594c-1.81-6.997-6.309-18.538-10.627-22.305-3.93-3.428-4.322-9.373-.877-13.277 3.436-3.914 9.407-4.314 13.346-.873 10.193 8.889 15.518 28.034 16.483 31.778 1.293 5.031-1.754 10.148-6.807 11.444-5.164 1.292-10.231-1.82-11.518-6.767z" fill="#3D3D3D"/></svg>